<svg viewBox="0 0 960 584" width="100%" role="img" xmlns="http://www.w3.org/2000/svg" font-family="-apple-system, 'PingFang SC', 'Microsoft YaHei', sans-serif">
<title>扩图打样：工作台整体布局</title>
<desc>左 rail 为工具入口，中央视口是工作图与 8 个拖拽手柄，视口底部悬浮 dock，右栏为固定的对照区与注册表驱动的滚动参数面板。</desc>
<rect x="40" y="40" width="880" height="40" rx="8" fill="#F1EFE8" stroke="#B4B2A9" stroke-width="0.5"/>
<text x="56" y="60" font-size="13" fill="#5F5E5A" dominant-baseline="central">← 返回画布</text>
<text x="480" y="60" font-size="13" fill="#2C2C2A" text-anchor="middle" dominant-baseline="central">工作台 · 扩图</text>
<text x="904" y="60" font-size="12" fill="#888780" text-anchor="end" dominant-baseline="central">v3 · 原图 1024×1024</text>
<rect x="40" y="92" width="56" height="408" rx="12" fill="#F1EFE8" stroke="#B4B2A9" stroke-width="0.5"/>
<rect x="52" y="108" width="32" height="32" rx="8" fill="#FFFFFF" stroke="#B4B2A9" stroke-width="0.5"/>
<circle cx="68" cy="124" r="4" fill="none" stroke="#888780" stroke-width="1"/>
<path d="M64 128l8 -8" stroke="#888780" stroke-width="1" fill="none"/>
<rect x="52" y="148" width="32" height="32" rx="8" fill="#E6F1FB" stroke="#378ADD" stroke-width="1"/>
<path d="M62 154v6M60 160h6M74 154v6M72 160h6" stroke="#185FA5" stroke-width="1" fill="none"/>
<rect x="52" y="188" width="32" height="32" rx="8" fill="#FFFFFF" stroke="#D3D1C7" stroke-width="0.5"/>
<path d="M62 194v12M58 200l4 -5 4 5" stroke="#B4B2A9" stroke-width="1" fill="none"/>
<rect x="52" y="228" width="32" height="32" rx="8" fill="#FFFFFF" stroke="#D3D1C7" stroke-width="0.5"/>
<path d="M62 234v12M72 234v12M58 238h16M58 242h16" stroke="#B4B2A9" stroke-width="1" fill="none"/>
<rect x="52" y="268" width="32" height="32" rx="8" fill="#FFFFFF" stroke="#D3D1C7" stroke-width="0.5"/>
<path d="M61 240" stroke="#B4B2A9" stroke-width="1" fill="none"/>
<path d="M62 276a6 6 0 0 1 10 -1M72 271v4h-4" stroke="#B4B2A9" stroke-width="1" fill="none"/>
<rect x="52" y="308" width="32" height="32" rx="8" fill="#FFFFFF" stroke="#D3D1C7" stroke-width="0.5"/>
<path d="M62 322h6M62 322v-6M78 316v6h-6" stroke="#B4B2A9" stroke-width="1" fill="none"/>
<rect x="52" y="348" width="32" height="32" rx="8" fill="#FFFFFF" stroke="#D3D1C7" stroke-width="0.5"/>
<circle cx="68" cy="364" r="6" fill="none" stroke="#B4B2A9" stroke-width="1"/>
<path d="M68 358v12" stroke="#B4B2A9" stroke-width="1" stroke-dasharray="2 2" fill="none"/>
<rect x="112" y="92" width="504" height="408" rx="12" fill="#FFFFFF" stroke="#B4B2A9" stroke-width="0.5"/>
<rect x="140" y="130" width="448" height="300" rx="4" fill="#E6F1FB" stroke="#378ADD" stroke-width="1" stroke-dasharray="5 4"/>
<rect x="196" y="172" width="336" height="216" fill="#B5D4F4" stroke="#378ADD" stroke-width="0.5"/>
<path d="M289.3 130v300M438.7 130v300" stroke="#85B7EB" stroke-width="0.5" stroke-dasharray="4 3" fill="none"/>
<path d="M140 230h448M140 330h448" stroke="#85B7EB" stroke-width="0.5" stroke-dasharray="4 3" fill="none"/>
<circle cx="140" cy="130" r="6" fill="#FFFFFF" stroke="#185FA5" stroke-width="1.5"/>
<circle cx="588" cy="130" r="6" fill="#FFFFFF" stroke="#185FA5" stroke-width="1.5"/>
<circle cx="140" cy="430" r="6" fill="#FFFFFF" stroke="#185FA5" stroke-width="1.5"/>
<circle cx="588" cy="430" r="6" fill="#FFFFFF" stroke="#185FA5" stroke-width="1.5"/>
<rect x="350" y="124" width="28" height="12" rx="6" fill="#FFFFFF" stroke="#185FA5" stroke-width="1.5"/>
<rect x="350" y="424" width="28" height="12" rx="6" fill="#FFFFFF" stroke="#185FA5" stroke-width="1.5"/>
<rect x="134" y="266" width="12" height="28" rx="6" fill="#FFFFFF" stroke="#185FA5" stroke-width="1.5"/>
<rect x="582" y="266" width="12" height="28" rx="6" fill="#FFFFFF" stroke="#185FA5" stroke-width="1.5"/>
<rect x="284" y="100" width="160" height="24" rx="12" fill="#185FA5"/>
<text x="364" y="112" font-size="12" fill="#FFFFFF" text-anchor="middle" dominant-baseline="central">1430 × 858 · 1:1</text>
<rect x="200" y="440" width="328" height="48" rx="12" fill="#FFFFFF" stroke="#B4B2A9" stroke-width="0.5"/>
<text x="214" y="464" font-size="13" fill="#888780" dominant-baseline="central">×</text>
<text x="228" y="464" font-size="12" fill="#888780" dominant-baseline="central">退出扩图</text>
<rect x="292" y="450" width="104" height="28" rx="8" fill="#F1EFE8" stroke="#B4B2A9" stroke-width="0.5"/>
<text x="344" y="464" font-size="11" fill="#5F5E5A" text-anchor="middle" dominant-baseline="central">gpt-image-2</text>
<text x="410" y="464" font-size="12" fill="#888780" dominant-baseline="central">12 积分</text>
<circle cx="496" cy="464" r="18" fill="#185FA5"/>
<path d="M496 457v14M490 463l6 -6 6 6" stroke="#FFFFFF" stroke-width="1.5" fill="none" stroke-linecap="round" stroke-linejoin="round"/>
<rect x="632" y="92" width="288" height="408" rx="12" fill="#F1EFE8" stroke="#B4B2A9" stroke-width="0.5"/>
<rect x="644" y="104" width="264" height="92" rx="8" fill="#FFFFFF" stroke="#B4B2A9" stroke-width="0.5"/>
<text x="656" y="120" font-size="12" fill="#888780" dominant-baseline="central">对照带</text>
<rect x="656" y="132" width="118" height="52" rx="6" fill="#B5D4F4" stroke="#378ADD" stroke-width="0.5"/>
<text x="715" y="176" font-size="11" fill="#185FA5" text-anchor="middle" dominant-baseline="central">原图</text>
<rect x="782" y="132" width="118" height="52" rx="6" fill="#E6F1FB" stroke="#378ADD" stroke-width="0.5" stroke-dasharray="4 3"/>
<text x="841" y="176" font-size="11" fill="#185FA5" text-anchor="middle" dominant-baseline="central">当前版本</text>
<rect x="644" y="204" width="264" height="212" rx="8" fill="#FFFFFF" stroke="#B4B2A9" stroke-width="0.5" stroke-dasharray="4 3"/>
<text x="656" y="224" font-size="12" font-weight="500" fill="#2C2C2A" dominant-baseline="central">比例</text>
<rect x="656" y="236" width="44" height="24" rx="6" fill="#185FA5"/>
<text x="678" y="248" font-size="11" fill="#FFFFFF" text-anchor="middle" dominant-baseline="central">原图</text>
<rect x="704" y="236" width="44" height="24" rx="6" fill="#F1EFE8" stroke="#B4B2A9" stroke-width="0.5"/>
<text x="726" y="248" font-size="11" fill="#5F5E5A" text-anchor="middle" dominant-baseline="central">1:1</text>
<rect x="752" y="236" width="44" height="24" rx="6" fill="#F1EFE8" stroke="#B4B2A9" stroke-width="0.5"/>
<text x="774" y="248" font-size="11" fill="#5F5E5A" text-anchor="middle" dominant-baseline="central">4:3</text>
<rect x="800" y="236" width="44" height="24" rx="6" fill="#F1EFE8" stroke="#B4B2A9" stroke-width="0.5"/>
<text x="822" y="248" font-size="11" fill="#5F5E5A" text-anchor="middle" dominant-baseline="central">3:4</text>
<rect x="848" y="236" width="44" height="24" rx="6" fill="#F1EFE8" stroke="#B4B2A9" stroke-width="0.5"/>
<text x="870" y="248" font-size="11" fill="#5F5E5A" text-anchor="middle" dominant-baseline="central">16:9</text>
<text x="656" y="284" font-size="12" font-weight="500" fill="#2C2C2A" dominant-baseline="central">尺寸</text>
<rect x="656" y="294" width="100" height="26" rx="6" fill="#FFFFFF" stroke="#B4B2A9" stroke-width="0.5"/>
<text x="706" y="307" font-size="12" fill="#2C2C2A" text-anchor="middle" dominant-baseline="central">1430</text>
<rect x="764" y="294" width="100" height="26" rx="6" fill="#FFFFFF" stroke="#B4B2A9" stroke-width="0.5"/>
<text x="814" y="307" font-size="12" fill="#2C2C2A" text-anchor="middle" dominant-baseline="central">858</text>
<text x="656" y="338" font-size="12" font-weight="500" fill="#2C2C2A" dominant-baseline="central">扩展量</text>
<text x="656" y="358" font-size="12" fill="#5F5E5A" dominant-baseline="central">左 89 · 右 89</text>
<text x="656" y="376" font-size="12" fill="#5F5E5A" dominant-baseline="central">上 19 · 下 19</text>
<rect x="656" y="390" width="72" height="26" rx="13" fill="#FFFFFF" stroke="#B4B2A9" stroke-width="0.5"/>
<text x="692" y="403" font-size="12" fill="#5F5E5A" text-anchor="middle" dominant-baseline="central">重置</text>
<text x="656" y="436" font-size="11" fill="#888780" dominant-baseline="central">滚动区只渲染当前工具注册的面板</text>
<circle cx="68" cy="100" r="9" fill="#2C2C2A"/>
<text x="68" y="100" font-size="11" fill="#FFFFFF" text-anchor="middle" dominant-baseline="central">1</text>
<circle cx="894" cy="114" r="9" fill="#2C2C2A"/>
<text x="894" y="114" font-size="11" fill="#FFFFFF" text-anchor="middle" dominant-baseline="central">2</text>
<circle cx="894" cy="212" r="9" fill="#2C2C2A"/>
<text x="894" y="212" font-size="11" fill="#FFFFFF" text-anchor="middle" dominant-baseline="central">3</text>
<circle cx="546" cy="464" r="9" fill="#2C2C2A"/>
<text x="546" y="464" font-size="11" fill="#FFFFFF" text-anchor="middle" dominant-baseline="central">4</text>
<circle cx="604" cy="118" r="9" fill="#2C2C2A"/>
<text x="604" y="118" font-size="11" fill="#FFFFFF" text-anchor="middle" dominant-baseline="central">5</text>
<text x="40" y="524" font-size="12" fill="#5F5E5A" dominant-baseline="central">① 左 rail：工具 / 模式入口（未实现者禁用占位）　② 对照区（固定，不随工具变化）　③ 滚动参数面板（注册表驱动）</text>
<text x="40" y="544" font-size="12" fill="#5F5E5A" dominant-baseline="central">④ 悬浮 dock（产出型工具 · 就近原则取 floating）　⑤ 8 手柄 + 拖拽 3×3 网格 + 顶部尺寸胶囊</text>
</svg>
